<svg width="1200" height="900" viewBox="0 0 1200 900" fill="none" xmlns="http://www.w3.org/2000/svg">
  <rect width="1200" height="900" fill="#F8F2E8"/>
  <rect x="70" y="60" width="1060" height="780" rx="40" fill="#FFFCF7" stroke="#D9CCBC"/>
  <rect x="120" y="120" width="400" height="540" rx="32" fill="#F2E3D2"/>
  <rect x="560" y="140" width="470" height="250" rx="28" fill="#FAF7F1" stroke="#DED2C4"/>
  <rect x="590" y="190" width="150" height="12" rx="6" fill="#C6B39E"/>
  <rect x="590" y="228" width="320" height="12" rx="6" fill="#D9CCBC"/>
  <rect x="590" y="264" width="260" height="12" rx="6" fill="#D9CCBC"/>
  <circle cx="305" cy="310" r="138" fill="#F1C8AB"/>
  <path d="M641 525C641 449.889 701.889 389 777 389H918C993.111 389 1054 449.889 1054 525V668H641V525Z" fill="#C8D9EE"/>
  <rect x="560" y="474" width="470" height="236" rx="32" fill="#FFF9F0" stroke="#DED2C4"/>
  <rect x="610" y="530" width="250" height="100" rx="20" fill="#EED2C9"/>
  <rect x="892" y="530" width="88" height="14" rx="7" fill="#C6B39E"/>
  <rect x="892" y="562" width="64" height="14" rx="7" fill="#D9CCBC"/>
  <rect x="892" y="594" width="72" height="14" rx="7" fill="#D9CCBC"/>
  <path d="M152 646C152 577.516 207.516 522 276 522H365C433.484 522 489 577.516 489 646V738H152V646Z" fill="#BFD4EA"/>
  <text x="166" y="165" fill="#4A3A2A" font-family="Georgia, serif" font-size="42">Editorial layout</text>
  <text x="167" y="208" fill="#7B6C5D" font-family="Arial, sans-serif" font-size="20">Large image, soft palette, quiet rhythm.</text>
  <text x="593" y="450" fill="#4A3A2A" font-family="Georgia, serif" font-size="34">Image-led storytelling</text>
  <text x="75" y="820" fill="#8C7B6B" font-family="Arial, sans-serif" font-size="18" letter-spacing="4">LIGHTER / AIRIER / MORE AUTHORED</text>
</svg>
