<svg width="1200" height="1200" viewBox="0 0 1200 1200" fill="none" xmlns="http://www.w3.org/2000/svg">
  <rect width="1200" height="1200" fill="#F5F0E8"/>
  <rect x="72" y="72" width="1056" height="1056" rx="42" fill="#FFFDF8" stroke="#D9CCBC"/>
  <path d="M140 270C140 187.709 206.709 121 289 121H911C993.291 121 1060 187.709 1060 270V450H140V270Z" fill="#C7D9EA"/>
  <rect x="140" y="512" width="920" height="208" rx="34" fill="#FFF8EF" stroke="#DED2C4"/>
  <rect x="192" y="572" width="208" height="14" rx="7" fill="#8A7767"/>
  <rect x="192" y="610" width="346" height="14" rx="7" fill="#D4C7B7"/>
  <rect x="192" y="648" width="300" height="14" rx="7" fill="#D4C7B7"/>
  <rect x="140" y="780" width="430" height="268" rx="34" fill="#F0D1C8"/>
  <rect x="630" y="780" width="430" height="268" rx="34" fill="#FFF8EF" stroke="#DED2C4"/>
  <circle cx="845" cy="915" r="90" fill="#D9BD75"/>
  <text x="164" y="1010" fill="#4A3A2A" font-family="Georgia, serif" font-size="44">Project frame two</text>
  <text x="164" y="1058" fill="#7B6C5D" font-family="Arial, sans-serif" font-size="22">Pinned sections and cleaner release points between chapters.</text>
</svg>
