<svg width="1200" height="1200" viewBox="0 0 1200 1200" fill="none" xmlns="http://www.w3.org/2000/svg">
  <rect width="1200" height="1200" fill="#F7F1E8"/>
  <rect x="78" y="78" width="1044" height="1044" rx="42" fill="#FFFDF8" stroke="#D9CCBC"/>
  <rect x="126" y="126" width="350" height="930" rx="34" fill="#F6E1D3"/>
  <rect x="528" y="126" width="546" height="300" rx="34" fill="#FFF8EF" stroke="#DED2C4"/>
  <rect x="576" y="190" width="184" height="14" rx="7" fill="#8A7767"/>
  <rect x="576" y="228" width="308" height="14" rx="7" fill="#D4C7B7"/>
  <rect x="576" y="266" width="260" height="14" rx="7" fill="#D4C7B7"/>
  <rect x="528" y="476" width="546" height="580" rx="34" fill="#FFF8EF" stroke="#DED2C4"/>
  <path d="M584 732C584 660.203 642.203 602 714 602H889C960.797 602 1019 660.203 1019 732V948H584V732Z" fill="#C7D7C8"/>
  <circle cx="302" cy="366" r="126" fill="#EEC7BF"/>
  <circle cx="254" cy="694" r="94" fill="#BFD4EA"/>
  <text x="140" y="1036" fill="#4A3A2A" font-family="Georgia, serif" font-size="44">Project frame three</text>
  <text x="140" y="1084" fill="#7B6C5D" font-family="Arial, sans-serif" font-size="22">Portfolio composition with offset imagery and softer contrast.</text>
</svg>
