<svg width="1200" height="1200" viewBox="0 0 1200 1200" fill="none" xmlns="http://www.w3.org/2000/svg">
  <rect width="1200" height="1200" fill="#F8F3EA"/>
  <rect x="72" y="72" width="1056" height="1056" rx="44" fill="#FFFBF3" stroke="#DED0C1"/>
  <path d="M122 286C122 192.112 198.112 116 292 116H908C1001.89 116 1078 192.112 1078 286V420H122V286Z" fill="#C9DCF7"/>
  <rect x="122" y="480" width="612" height="236" rx="32" fill="#FFF8EF" stroke="#E1D4C6"/>
  <rect x="178" y="544" width="228" height="14" rx="7" fill="#8E7767"/>
  <rect x="178" y="584" width="334" height="14" rx="7" fill="#D8CCBD"/>
  <rect x="178" y="624" width="278" height="14" rx="7" fill="#D8CCBD"/>
  <rect x="784" y="480" width="294" height="548" rx="32" fill="#D3DECB"/>
  <rect x="122" y="774" width="292" height="254" rx="32" fill="#F8E0D1"/>
  <rect x="442" y="774" width="292" height="254" rx="32" fill="#FFF8EF" stroke="#E1D4C6"/>
  <circle cx="930" cy="754" r="90" fill="#F2C36F"/>
  <text x="138" y="1044" fill="#46372A" font-family="Georgia, serif" font-size="46">Runway scene two</text>
  <text x="138" y="1092" fill="#7A6C5E" font-family="Arial, sans-serif" font-size="22">Structured windows and rails with softer product storytelling.</text>
</svg>
