<svg width="1200" height="1200" viewBox="0 0 1200 1200" fill="none" xmlns="http://www.w3.org/2000/svg">
  <rect width="1200" height="1200" fill="#F8F3EA"/>
  <rect x="72" y="72" width="1056" height="1056" rx="42" fill="#FFFBF5" stroke="#DDD0C1"/>
  <path d="M118 282C118 190.321 192.321 116 284 116H918C1009.68 116 1084 190.321 1084 282V418H118V282Z" fill="#C9DCF6"/>
  <rect x="118" y="470" width="620" height="268" rx="32" fill="#FFF7EE" stroke="#E1D5C7"/>
  <rect x="174" y="536" width="236" height="14" rx="7" fill="#8D7768"/>
  <rect x="174" y="576" width="318" height="14" rx="7" fill="#D9CBBC"/>
  <rect x="174" y="614" width="278" height="14" rx="7" fill="#D9CBBC"/>
  <rect x="786" y="470" width="298" height="558" rx="32" fill="#D0DCC8"/>
  <rect x="118" y="792" width="300" height="236" rx="32" fill="#F6D9C7"/>
  <rect x="438" y="792" width="300" height="236" rx="32" fill="#FFF7EE" stroke="#E1D5C7"/>
  <circle cx="938" cy="760" r="86" fill="#F0C780"/>
  <text x="132" y="1036" fill="#453629" font-family="Georgia, serif" font-size="46">Structured product board</text>
  <text x="132" y="1084" fill="#7A6C5E" font-family="Arial, sans-serif" font-size="22">Dashboard modules with clearer hierarchy and visual anchors.</text>
</svg>
