<svg width="1200" height="1200" viewBox="0 0 1200 1200" fill="none" xmlns="http://www.w3.org/2000/svg">
  <rect width="1200" height="1200" fill="#F9F3EB"/>
  <rect x="76" y="76" width="1048" height="1048" rx="42" fill="#FFFBF5" stroke="#DDD0C1"/>
  <rect x="124" y="124" width="374" height="952" rx="36" fill="#F6E3D5"/>
  <rect x="546" y="124" width="530" height="250" rx="32" fill="#FFF7EE" stroke="#E1D5C7"/>
  <rect x="594" y="188" width="194" height="14" rx="7" fill="#8D7768"/>
  <rect x="594" y="228" width="320" height="14" rx="7" fill="#D9CBBC"/>
  <rect x="594" y="266" width="250" height="14" rx="7" fill="#D9CBBC"/>
  <rect x="546" y="428" width="530" height="648" rx="32" fill="#FFF7EE" stroke="#E1D5C7"/>
  <path d="M608 742C608 667.442 668.442 607 743 607H877C951.558 607 1012 667.442 1012 742V960H608V742Z" fill="#C3D9F4"/>
  <circle cx="310" cy="338" r="128" fill="#F1AE8D"/>
  <circle cx="250" cy="728" r="96" fill="#CFDDC7"/>
  <text x="138" y="1036" fill="#453629" font-family="Georgia, serif" font-size="46">Portrait-forward showcase</text>
  <text x="138" y="1084" fill="#7A6C5E" font-family="Arial, sans-serif" font-size="22">Softer editorial spacing with a stronger identity lead.</text>
</svg>
